<svg width="150" height="60" viewBox="0 0 150 60" fill="none" xmlns="http://www.w3.org/2000/svg">
<path d="M7 23C7 13.6112 14.6112 6 24 6H130C139.389 6 147 13.6112 147 23V39C147 48.3888 139.389 56 130 56H24C14.6112 56 7 48.3888 7 39V23Z" fill="#AC248A"/>
<path d="M3 19C3 9.61116 10.6112 2 20 2H126C135.389 2 143 9.61116 143 19V35C143 44.3888 135.389 52 126 52H20C10.6112 52 3 44.3888 3 35V19Z" fill="#F3B562"/>
<path d="M5 21C5 11.6112 12.6112 4 22 4H128C137.389 4 145 11.6112 145 21V37C145 46.3888 137.389 54 128 54H22C12.6112 54 5 46.3888 5 37V21Z" fill="#0C4EEB"/>
<path d="M29.044 36.032C29.652 36.032 30.116 35.656 30.436 34.904C30.764 34.152 30.928 32.912 30.928 31.184V29.972C30.928 28.708 30.776 27.732 30.472 27.044C30.168 26.356 29.736 26.012 29.176 26.012H28.276V36.032H29.044ZM29.416 38.084C29.128 38.084 28.68 38.068 28.072 38.036C27.472 38.012 26.852 38 26.212 38H24.304V23.936H26.212C26.748 23.928 27.332 23.908 27.964 23.876C28.596 23.844 29.092 23.828 29.452 23.828C31.492 23.828 32.952 24.4 33.832 25.544C34.72 26.688 35.164 28.356 35.164 30.548C35.164 31.292 35.112 32 35.008 32.672C34.912 33.344 34.728 34.02 34.456 34.7C34.184 35.372 33.84 35.952 33.424 36.44C33.008 36.928 32.456 37.324 31.768 37.628C31.08 37.932 30.296 38.084 29.416 38.084ZM40.3603 32.564C40.3603 33.892 40.4603 34.816 40.6603 35.336C40.8683 35.856 41.2283 36.116 41.7403 36.116C42.1163 36.116 42.4003 36.024 42.5923 35.84C42.7843 35.648 42.9283 35.26 43.0243 34.676C43.1283 34.084 43.1803 33.2 43.1803 32.024V29.132C43.1803 27.988 43.0683 27.136 42.8443 26.576C42.6203 26.016 42.2523 25.736 41.7403 25.736C41.2283 25.736 40.8683 26.012 40.6603 26.564C40.4603 27.108 40.3603 28.104 40.3603 29.552V32.564ZM41.4883 38.252C40.8243 38.252 40.2243 38.192 39.6883 38.072C39.1603 37.952 38.7043 37.784 38.3203 37.568C37.9363 37.352 37.6003 37.076 37.3123 36.74C37.0323 36.404 36.8043 36.044 36.6283 35.66C36.4603 35.276 36.3243 34.828 36.2203 34.316C36.1163 33.796 36.0443 33.28 36.0043 32.768C35.9643 32.248 35.9443 31.664 35.9443 31.016C35.9443 30.056 35.9923 29.22 36.0883 28.508C36.1923 27.796 36.3803 27.128 36.6523 26.504C36.9243 25.872 37.2843 25.36 37.7323 24.968C38.1883 24.576 38.7723 24.268 39.4843 24.044C40.2043 23.82 41.0523 23.708 42.0283 23.708C42.7003 23.708 43.3043 23.772 43.8403 23.9C44.3763 24.02 44.8363 24.188 45.2203 24.404C45.6043 24.62 45.9363 24.9 46.2163 25.244C46.5043 25.588 46.7323 25.956 46.9003 26.348C47.0763 26.732 47.2163 27.184 47.3203 27.704C47.4243 28.224 47.4963 28.74 47.5363 29.252C47.5763 29.764 47.5963 30.344 47.5963 30.992C47.5963 31.952 47.5443 32.788 47.4403 33.5C47.3363 34.212 47.1483 34.88 46.8763 35.504C46.6043 36.12 46.2403 36.624 45.7843 37.016C45.3283 37.4 44.7403 37.704 44.0203 37.928C43.3083 38.144 42.4643 38.252 41.4883 38.252ZM54.6511 38H50.8591L47.5111 23.936H51.5071L52.1431 28.784L53.0911 33.488L54.3031 28.784L54.6151 27.5L53.6911 23.936H57.6151L58.4791 28.784L59.5351 33.488L60.1951 28.784L60.9031 23.936H64.5511L61.4551 38H57.3631L55.8871 32.348L54.6511 38ZM68.62 38H64.804V25.064L64.216 23.936H68.632L70.84 28.496L72.952 33.044L72.364 27.704V23.936H76.192V38H72.532L69.676 32.444L67.912 28.964L68.62 33.572V38ZM77.8118 38V23.936H81.7838V34.784H85.3598V38H77.8118ZM90.5282 32.564C90.5282 33.892 90.6282 34.816 90.8283 35.336C91.0363 35.856 91.3963 36.116 91.9083 36.116C92.2843 36.116 92.5683 36.024 92.7603 35.84C92.9523 35.648 93.0963 35.26 93.1922 34.676C93.2962 34.084 93.3482 33.2 93.3482 32.024V29.132C93.3482 27.988 93.2362 27.136 93.0123 26.576C92.7882 26.016 92.4202 25.736 91.9083 25.736C91.3963 25.736 91.0363 26.012 90.8283 26.564C90.6282 27.108 90.5282 28.104 90.5282 29.552V32.564ZM91.6563 38.252C90.9923 38.252 90.3922 38.192 89.8563 38.072C89.3283 37.952 88.8722 37.784 88.4882 37.568C88.1043 37.352 87.7683 37.076 87.4803 36.74C87.2003 36.404 86.9723 36.044 86.7962 35.66C86.6283 35.276 86.4923 34.828 86.3882 34.316C86.2842 33.796 86.2122 33.28 86.1722 32.768C86.1322 32.248 86.1123 31.664 86.1123 31.016C86.1123 30.056 86.1602 29.22 86.2562 28.508C86.3602 27.796 86.5482 27.128 86.8202 26.504C87.0922 25.872 87.4522 25.36 87.9003 24.968C88.3562 24.576 88.9402 24.268 89.6523 24.044C90.3723 23.82 91.2202 23.708 92.1962 23.708C92.8682 23.708 93.4722 23.772 94.0082 23.9C94.5442 24.02 95.0042 24.188 95.3882 24.404C95.7722 24.62 96.1042 24.9 96.3843 25.244C96.6723 25.588 96.9003 25.956 97.0683 26.348C97.2443 26.732 97.3843 27.184 97.4882 27.704C97.5922 28.224 97.6643 28.74 97.7043 29.252C97.7443 29.764 97.7643 30.344 97.7643 30.992C97.7643 31.952 97.7122 32.788 97.6082 33.5C97.5042 34.212 97.3162 34.88 97.0442 35.504C96.7723 36.12 96.4082 36.624 95.9522 37.016C95.4962 37.4 94.9082 37.704 94.1883 37.928C93.4762 38.144 92.6322 38.252 91.6563 38.252ZM105.911 38L105.371 35.756H101.963L101.507 38H97.979L101.639 24.908L101.351 23.936H106.307L110.315 38H105.911ZM103.511 28.064L102.455 33.308H104.783L103.511 28.064ZM115.528 36.032C116.136 36.032 116.6 35.656 116.92 34.904C117.248 34.152 117.412 32.912 117.412 31.184V29.972C117.412 28.708 117.26 27.732 116.956 27.044C116.652 26.356 116.22 26.012 115.66 26.012H114.76V36.032H115.528ZM115.9 38.084C115.612 38.084 115.164 38.068 114.556 38.036C113.956 38.012 113.336 38 112.696 38H110.788V23.936H112.696C113.232 23.928 113.816 23.908 114.448 23.876C115.08 23.844 115.576 23.828 115.936 23.828C117.976 23.828 119.436 24.4 120.316 25.544C121.204 26.688 121.648 28.356 121.648 30.548C121.648 31.292 121.596 32 121.492 32.672C121.396 33.344 121.212 34.02 120.94 34.7C120.668 35.372 120.324 35.952 119.908 36.44C119.492 36.928 118.94 37.324 118.252 37.628C117.564 37.932 116.78 38.084 115.9 38.084Z" fill="white"/>
</svg>
