<svg width="119" height="80" viewBox="0 0 119 80" fill="none" xmlns="http://www.w3.org/2000/svg">
<path d="M1 12C1 8.13401 4.13401 5 8 5H109C112.866 5 116 8.13401 116 12V37.9495C116 39.6237 115.408 41.2361 114.239 42.4346C108.278 48.5445 87.8967 67.1501 64 63.3291C41.3979 59.7152 15.0221 48.9361 5.07352 44.6296C2.56931 43.5456 1 41.0758 1 38.3471V12Z" fill="#AC248A"/>
<path d="M1 12C1 8.13401 4.13401 5 8 5H109C112.866 5 116 8.13401 116 12V37.9495C116 39.6237 115.408 41.2361 114.239 42.4346C108.278 48.5445 87.8967 67.1501 64 63.3291C41.3979 59.7152 15.0221 48.9361 5.07352 44.6296C2.56931 43.5456 1 41.0758 1 38.3471V12Z" fill="#AC248A"/>
<path d="M34.192 38L33.568 35.936C33.4827 36.0853 33.3813 36.2347 33.264 36.384C33.1573 36.5333 32.9813 36.7253 32.736 36.96C32.4907 37.184 32.2293 37.3813 31.952 37.552C31.6747 37.7227 31.328 37.872 30.912 38C30.496 38.128 30.0587 38.192 29.6 38.192C27.84 38.192 26.5493 37.5893 25.728 36.384C24.9067 35.1787 24.496 33.504 24.496 31.36C24.496 30.016 24.688 28.8213 25.072 27.776C25.456 26.72 26.0587 25.872 26.88 25.232C27.7013 24.592 28.6933 24.272 29.856 24.272C30.5493 24.272 31.168 24.3467 31.712 24.496C32.256 24.6453 32.7253 24.8267 33.12 25.04V20.192L31.36 19.6V17.84L37.024 17.04H38.272V38H34.192ZM31.936 35.056C32.128 35.056 32.3253 35.024 32.528 34.96C32.7307 34.8853 32.928 34.784 33.12 34.656V26.608C32.7893 26.5333 32.4853 26.496 32.208 26.496C30.7893 26.5067 30.0747 27.6 30.064 29.776V32.016C30.064 33.0187 30.24 33.776 30.592 34.288C30.944 34.8 31.392 35.056 31.936 35.056ZM40.4355 38V27.648L39.4755 27.056V25.344L42.9155 24.4H45.5875V38H40.4355ZM42.7555 22.928L40.1315 20.288V19.728L42.7555 17.104H43.3635L46.0995 19.728V20.288L43.3635 22.928H42.7555ZM54.7069 36.576L54.5469 36.752C54.4402 36.88 54.2749 37.0293 54.0509 37.2C53.8375 37.3707 53.5869 37.5413 53.2989 37.712C53.0215 37.8827 52.6802 38.0267 52.2749 38.144C51.8695 38.272 51.4535 38.336 51.0269 38.336C48.1469 38.336 46.7069 36.912 46.7069 34.064C46.7069 33.5093 46.8082 33.0027 47.0109 32.544C47.2135 32.0747 47.4749 31.68 47.7949 31.36C48.1149 31.04 48.4989 30.7573 48.9469 30.512C49.3949 30.256 49.8429 30.0587 50.2909 29.92C50.7495 29.7707 51.2295 29.648 51.7309 29.552C52.2322 29.456 52.6802 29.392 53.0749 29.36C53.4695 29.328 53.8482 29.312 54.2109 29.312V29.024C54.2109 28.3733 54.0349 27.9147 53.6829 27.648C53.3415 27.3813 52.7869 27.248 52.0189 27.248C51.3575 27.248 50.6695 27.328 49.9549 27.488C49.2402 27.6373 48.6802 27.8187 48.2749 28.032L47.2509 25.856C47.9762 25.3867 48.9202 24.976 50.0829 24.624C51.2455 24.2613 52.4295 24.08 53.6349 24.08C54.7015 24.08 55.5815 24.1867 56.2749 24.4C56.9682 24.6027 57.5282 24.9547 57.9549 25.456C58.3922 25.9467 58.7015 26.576 58.8829 27.344C59.0642 28.1013 59.1549 29.0667 59.1549 30.24V36.752L59.6029 38H55.2189L54.7069 36.576ZM53.4429 35.52C53.5815 35.52 53.7095 35.4933 53.8269 35.44C53.9549 35.376 54.0509 35.3173 54.1149 35.264C54.1789 35.2 54.2109 35.168 54.2109 35.168V31.328C53.5602 31.328 53.0429 31.5093 52.6589 31.872C52.2749 32.224 52.0829 32.7733 52.0829 33.52C52.0829 34.8533 52.5362 35.52 53.4429 35.52ZM66.3691 38H61.2011V27.648L60.2411 27.056V25.248L63.6811 24.4H64.9771L65.4411 28.208C65.8785 25.5947 67.2811 24.288 69.6491 24.288C69.9158 24.288 70.1931 24.336 70.4811 24.432L69.9371 30.128C69.7131 29.9253 69.2225 29.824 68.4651 29.824C67.3771 29.824 66.6785 30.112 66.3691 30.688V38ZM71.748 38V27.648L70.788 27.056V25.344L74.228 24.4H76.9V38H71.748ZM74.068 22.928L71.444 20.288V19.728L74.068 17.104H74.676L77.412 19.728V20.288L74.676 22.928H74.068ZM85.5394 36.416C86.0087 36.416 86.366 36.224 86.6114 35.84C86.8674 35.4453 86.9954 34.9067 86.9954 34.224V29.168C86.9954 27.088 86.5047 26.048 85.5234 26.048C85.0647 26.048 84.7074 26.2347 84.4514 26.608C84.1954 26.9813 84.0674 27.5093 84.0674 28.192V33.392C84.0674 35.408 84.558 36.416 85.5394 36.416ZM85.4114 38.336C82.9687 38.336 81.182 37.7813 80.0514 36.672C78.9207 35.5627 78.3554 33.792 78.3554 31.36C78.3554 28.9493 78.926 27.136 80.0674 25.92C81.2087 24.6933 83.0647 24.08 85.6354 24.08C88.142 24.08 89.95 24.6667 91.0594 25.84C92.1794 27.0027 92.7394 28.768 92.7394 31.136C92.7394 33.5893 92.1474 35.4027 90.9634 36.576C89.79 37.7493 87.9394 38.336 85.4114 38.336Z" fill="white"/>
</svg>
