<svg width="119" height="80" viewBox="0 0 119 80" fill="none" xmlns="http://www.w3.org/2000/svg">
<path d="M1.17095 12.1669C1.0772 8.23668 4.23761 5 8.16896 5H107.895C111.802 5 114.952 8.19806 114.894 12.1045L114.118 64.0586C114.056 68.2686 110.335 71.4597 106.176 70.8013C94.651 68.9765 72.0798 65.1137 50 59.6835C28.4125 54.3745 13.8699 50.3496 6.85503 48.3422C3.95094 47.5112 1.95134 44.8842 1.87931 41.8644L1.17095 12.1669Z" fill="#901E74"/>
<path d="M36.208 40H31.024V21.904L30.064 21.328V19.84L35.2 19.04H36.24V28.464L36.432 28.224C36.56 28.0533 36.7467 27.8507 36.992 27.616C37.248 27.3813 37.5307 27.152 37.84 26.928C38.1493 26.6933 38.5173 26.496 38.944 26.336C39.3813 26.1653 39.808 26.08 40.224 26.08C41.6853 26.08 42.7147 26.48 43.312 27.28C43.92 28.08 44.224 29.4187 44.224 31.296C44.224 31.36 44.224 31.456 44.224 31.584C44.2133 31.712 44.208 31.8133 44.208 31.888V40H38.928V31.424C38.96 30.4213 38.5333 29.92 37.648 29.92C37.5627 29.92 37.4773 29.9253 37.392 29.936C37.3173 29.9467 37.2373 29.9733 37.152 30.016C37.0667 30.0587 36.9973 30.0907 36.944 30.112C36.9013 30.1333 36.832 30.176 36.736 30.24C36.6507 30.304 36.592 30.3467 36.56 30.368C36.5387 30.3893 36.4747 30.4427 36.368 30.528C36.272 30.6133 36.2187 30.6613 36.208 30.672V40ZM52.6331 38.416C53.1025 38.416 53.4598 38.224 53.7051 37.84C53.9611 37.4453 54.0891 36.9067 54.0891 36.224V31.168C54.0891 29.088 53.5985 28.048 52.6171 28.048C52.1585 28.048 51.8011 28.2347 51.5451 28.608C51.2891 28.9813 51.1611 29.5093 51.1611 30.192V35.392C51.1611 37.408 51.6518 38.416 52.6331 38.416ZM52.5051 40.336C50.0625 40.336 48.2758 39.7813 47.1451 38.672C46.0145 37.5627 45.4491 35.792 45.4491 33.36C45.4491 30.9493 46.0198 29.136 47.1611 27.92C48.3025 26.6933 50.1585 26.08 52.7291 26.08C55.2358 26.08 57.0438 26.6667 58.1531 27.84C59.2731 29.0027 59.8331 30.768 59.8331 33.136C59.8331 35.5893 59.2411 37.4027 58.0571 38.576C56.8838 39.7493 55.0331 40.336 52.5051 40.336ZM66.7441 40H61.5761V29.648L60.6161 29.056V27.344L64.0561 26.4H66.7761V28.464C66.8295 28.3893 66.9041 28.2933 67.0001 28.176C67.1068 28.048 67.2988 27.8507 67.5761 27.584C67.8535 27.3173 68.1361 27.0827 68.4241 26.88C68.7228 26.6773 69.0801 26.496 69.4961 26.336C69.9228 26.1653 70.3441 26.08 70.7601 26.08C71.8268 26.08 72.6428 26.2827 73.2081 26.688C73.7735 27.0933 74.1735 27.7547 74.4081 28.672C74.7708 28.0427 75.3255 27.456 76.0721 26.912C76.8295 26.3573 77.6615 26.08 78.5681 26.08C79.5708 26.08 80.3495 26.256 80.9041 26.608C81.4695 26.9493 81.8801 27.536 82.1361 28.368C82.3921 29.2 82.5201 30.3733 82.5201 31.888V40H77.3201V31.424C77.3201 30.9547 77.2081 30.5867 76.9841 30.32C76.7601 30.0533 76.4188 29.92 75.9601 29.92C75.6508 29.92 75.2295 30.176 74.6961 30.688C74.7281 31.2 74.7441 31.7547 74.7441 32.352V40H69.4641V31.424C69.4961 30.4213 69.0695 29.92 68.1841 29.92C68.1201 29.92 68.0561 29.9253 67.9921 29.936C67.9388 29.9467 67.8855 29.9573 67.8321 29.968C67.7895 29.9787 67.7361 30 67.6721 30.032C67.6188 30.0533 67.5708 30.0747 67.5281 30.096C67.4855 30.1067 67.4375 30.1333 67.3841 30.176C67.3308 30.208 67.2881 30.2347 67.2561 30.256C67.2241 30.2773 67.1761 30.3147 67.1121 30.368C67.0588 30.4107 67.0161 30.4427 66.9841 30.464C66.9628 30.4853 66.9201 30.5227 66.8561 30.576C66.8028 30.6187 66.7655 30.6507 66.7441 30.672V40ZM91.7289 31.728C91.7289 30.3733 91.6595 29.4133 91.5209 28.848C91.3822 28.2827 91.1262 28 90.7529 28C90.4329 28 90.1715 28.0587 89.9689 28.176C89.7662 28.2827 89.6169 28.4587 89.5209 28.704C89.4249 28.9387 89.3609 29.184 89.3289 29.44C89.3075 29.6853 89.2969 30 89.2969 30.384V31.728H91.7289ZM90.4489 40.336C89.2542 40.336 88.2142 40.1547 87.3289 39.792C86.4542 39.4293 85.7609 38.9227 85.2489 38.272C84.7475 37.6213 84.3795 36.8907 84.1449 36.08C83.9102 35.2587 83.7929 34.3467 83.7929 33.344C83.7929 30.9547 84.4009 29.1467 85.6169 27.92C86.8329 26.6933 88.5342 26.08 90.7209 26.08C92.8222 26.08 94.3262 26.576 95.2329 27.568C96.1395 28.5493 96.5929 30.1333 96.5929 32.32V34.096H89.2809V34.4C89.2809 35.0293 89.3449 35.5467 89.4729 35.952C89.6115 36.3573 89.8089 36.656 90.0649 36.848C90.3209 37.04 90.5822 37.168 90.8489 37.232C91.1155 37.296 91.4409 37.328 91.8249 37.328C92.1982 37.328 92.5982 37.28 93.0249 37.184C93.4622 37.088 93.8995 36.9387 94.3369 36.736C94.7849 36.5333 95.1582 36.2933 95.4569 36.016L96.4009 37.632C96.0062 38.272 95.4249 38.8107 94.6569 39.248C93.8995 39.6747 93.1689 39.9627 92.4649 40.112C91.7609 40.2613 91.0889 40.336 90.4489 40.336Z" fill="white"/>
</svg>
