<svg width="119" height="80" viewBox="0 0 119 80" fill="none" xmlns="http://www.w3.org/2000/svg">
<path d="M2 12C2 8.13401 5.13401 5 9 5H110C113.866 5 117 8.13401 117 12V34.9514C117 39.1414 113.352 42.407 109.184 41.9801C99.8882 41.028 82.9024 39.4321 61.5 38.0577C39.8651 36.6684 21.024 38.7572 10.6124 40.3606C6.17783 41.0436 2 37.645 2 33.1581V12Z" fill="#F3B562"/>
<path d="M2 12C2 8.13401 5.13401 5 9 5H110C113.866 5 117 8.13401 117 12V34.9514C117 39.1414 113.352 42.407 109.184 41.9801C99.8882 41.028 82.9024 39.4321 61.5 38.0577C39.8651 36.6684 21.024 38.7572 10.6124 40.3606C6.17783 41.0436 2 37.645 2 33.1581V12Z" fill="#F3B562"/>
<path d="M31.416 32H26.248V21.648L25.288 21.056V19.344L28.728 18.4H31.448V20.464C31.5013 20.3893 31.576 20.2933 31.672 20.176C31.7787 20.048 31.9707 19.8507 32.248 19.584C32.5253 19.3173 32.808 19.0827 33.096 18.88C33.3947 18.6773 33.752 18.496 34.168 18.336C34.5947 18.1653 35.016 18.08 35.432 18.08C36.4987 18.08 37.3147 18.2827 37.88 18.688C38.4453 19.0933 38.8453 19.7547 39.08 20.672C39.4427 20.0427 39.9973 19.456 40.744 18.912C41.5013 18.3573 42.3333 18.08 43.24 18.08C44.2427 18.08 45.0213 18.256 45.576 18.608C46.1413 18.9493 46.552 19.536 46.808 20.368C47.064 21.2 47.192 22.3733 47.192 23.888V32H41.992V23.424C41.992 22.9547 41.88 22.5867 41.656 22.32C41.432 22.0533 41.0907 21.92 40.632 21.92C40.3227 21.92 39.9013 22.176 39.368 22.688C39.4 23.2 39.416 23.7547 39.416 24.352V32H34.136V23.424C34.168 22.4213 33.7413 21.92 32.856 21.92C32.792 21.92 32.728 21.9253 32.664 21.936C32.6107 21.9467 32.5573 21.9573 32.504 21.968C32.4613 21.9787 32.408 22 32.344 22.032C32.2907 22.0533 32.2427 22.0747 32.2 22.096C32.1573 22.1067 32.1093 22.1333 32.056 22.176C32.0027 22.208 31.96 22.2347 31.928 22.256C31.896 22.2773 31.848 22.3147 31.784 22.368C31.7307 22.4107 31.688 22.4427 31.656 22.464C31.6347 22.4853 31.592 22.5227 31.528 22.576C31.4747 22.6187 31.4373 22.6507 31.416 22.672V32ZM56.1288 30.576L55.9688 30.752C55.8621 30.88 55.6967 31.0293 55.4727 31.2C55.2594 31.3707 55.0087 31.5413 54.7207 31.712C54.4434 31.8827 54.1021 32.0267 53.6968 32.144C53.2914 32.272 52.8754 32.336 52.4488 32.336C49.5688 32.336 48.1288 30.912 48.1288 28.064C48.1288 27.5093 48.2301 27.0027 48.4327 26.544C48.6354 26.0747 48.8967 25.68 49.2168 25.36C49.5367 25.04 49.9207 24.7573 50.3688 24.512C50.8167 24.256 51.2647 24.0587 51.7128 23.92C52.1714 23.7707 52.6514 23.648 53.1527 23.552C53.6541 23.456 54.1021 23.392 54.4967 23.36C54.8914 23.328 55.2701 23.312 55.6328 23.312V23.024C55.6328 22.3733 55.4568 21.9147 55.1047 21.648C54.7634 21.3813 54.2087 21.248 53.4408 21.248C52.7794 21.248 52.0914 21.328 51.3768 21.488C50.6621 21.6373 50.1021 21.8187 49.6967 22.032L48.6727 19.856C49.3981 19.3867 50.3421 18.976 51.5048 18.624C52.6674 18.2613 53.8514 18.08 55.0567 18.08C56.1234 18.08 57.0034 18.1867 57.6968 18.4C58.3901 18.6027 58.9501 18.9547 59.3767 19.456C59.8141 19.9467 60.1234 20.576 60.3047 21.344C60.4861 22.1013 60.5768 23.0667 60.5768 24.24V30.752L61.0247 32H56.6408L56.1288 30.576ZM54.8648 29.52C55.0034 29.52 55.1314 29.4933 55.2488 29.44C55.3767 29.376 55.4727 29.3173 55.5368 29.264C55.6008 29.2 55.6328 29.168 55.6328 29.168V25.328C54.9821 25.328 54.4648 25.5093 54.0807 25.872C53.6967 26.224 53.5048 26.7733 53.5048 27.52C53.5048 28.8533 53.9581 29.52 54.8648 29.52ZM70.815 32C70.1963 32 69.631 31.936 69.119 31.808C68.607 31.68 68.159 31.52 67.775 31.328V36.832H62.623V21.648L61.663 21.056V19.344L65.103 18.4H67.775V19.472C68.159 19.0773 68.623 18.7467 69.167 18.48C69.711 18.2133 70.3457 18.08 71.071 18.08C72.831 18.08 74.1217 18.6827 74.943 19.888C75.775 21.0933 76.191 22.7627 76.191 24.896C76.191 25.8987 76.079 26.8267 75.855 27.68C75.631 28.5227 75.3003 29.2693 74.863 29.92C74.4257 30.5707 73.8603 31.0827 73.167 31.456C72.4843 31.8187 71.7003 32 70.815 32ZM68.463 29.776C69.8923 29.776 70.607 28.6827 70.607 26.496V23.776C70.607 22.816 70.4417 22.1013 70.111 21.632C69.791 21.1627 69.375 20.928 68.863 20.928C68.511 20.928 68.1483 21.0347 67.775 21.248V29.696C67.903 29.728 68.0203 29.7493 68.127 29.76C68.2443 29.7707 68.3563 29.776 68.463 29.776ZM84.9569 30.576L84.7969 30.752C84.6902 30.88 84.5249 31.0293 84.3009 31.2C84.0875 31.3707 83.8369 31.5413 83.5489 31.712C83.2715 31.8827 82.9302 32.0267 82.5249 32.144C82.1195 32.272 81.7035 32.336 81.2769 32.336C78.3969 32.336 76.9569 30.912 76.9569 28.064C76.9569 27.5093 77.0582 27.0027 77.2609 26.544C77.4635 26.0747 77.7249 25.68 78.0449 25.36C78.3649 25.04 78.7489 24.7573 79.1969 24.512C79.6449 24.256 80.0929 24.0587 80.5409 23.92C80.9995 23.7707 81.4795 23.648 81.9809 23.552C82.4822 23.456 82.9302 23.392 83.3249 23.36C83.7195 23.328 84.0982 23.312 84.4609 23.312V23.024C84.4609 22.3733 84.2849 21.9147 83.9329 21.648C83.5915 21.3813 83.0369 21.248 82.2689 21.248C81.6075 21.248 80.9195 21.328 80.2049 21.488C79.4902 21.6373 78.9302 21.8187 78.5249 22.032L77.5009 19.856C78.2262 19.3867 79.1702 18.976 80.3329 18.624C81.4955 18.2613 82.6795 18.08 83.8849 18.08C84.9515 18.08 85.8315 18.1867 86.5249 18.4C87.2182 18.6027 87.7782 18.9547 88.2049 19.456C88.6422 19.9467 88.9515 20.576 89.1329 21.344C89.3142 22.1013 89.4049 23.0667 89.4049 24.24V30.752L89.8529 32H85.4689L84.9569 30.576ZM83.6929 29.52C83.8315 29.52 83.9595 29.4933 84.0769 29.44C84.2049 29.376 84.3009 29.3173 84.3649 29.264C84.4289 29.2 84.4609 29.168 84.4609 29.168V25.328C83.8102 25.328 83.2929 25.5093 82.9089 25.872C82.5249 26.224 82.3329 26.7733 82.3329 27.52C82.3329 28.8533 82.7862 29.52 83.6929 29.52Z" fill="white"/>
</svg>
