<svg width="190" height="80" viewBox="0 0 190 80" fill="none" xmlns="http://www.w3.org/2000/svg">
<path d="M2.34637 11.8387C2.43401 8.03656 5.54137 5 9.34451 5H182C185.866 5 189 8.13401 189 12V59.9466C189 63.3124 186.612 66.1947 183.295 66.7661C167.23 69.5338 120.142 77 79.7093 77C42.7829 77 17.2344 73.2636 6.57367 71.3506C3.30919 70.7648 1.05478 67.8733 1.13121 64.5576L2.34637 11.8387Z" fill="#0C4EEB"/>
<path d="M2.34637 11.8387C2.43401 8.03656 5.54137 5 9.34451 5H182C185.866 5 189 8.13401 189 12V59.9466C189 63.3124 186.612 66.1947 183.295 66.7661C167.23 69.5338 120.142 77 79.7093 77C42.7829 77 17.2344 73.2636 6.57367 71.3506C3.30919 70.7648 1.05478 67.8733 1.13121 64.5576L2.34637 11.8387Z" fill="#0C4EEB"/>
<path d="M28.44 38C27.8213 38 27.256 37.936 26.744 37.808C26.232 37.68 25.784 37.52 25.4 37.328V42.832H20.248V27.648L19.288 27.056V25.344L22.728 24.4H25.4V25.472C25.784 25.0773 26.248 24.7467 26.792 24.48C27.336 24.2133 27.9707 24.08 28.696 24.08C30.456 24.08 31.7467 24.6827 32.568 25.888C33.4 27.0933 33.816 28.7627 33.816 30.896C33.816 31.8987 33.704 32.8267 33.48 33.68C33.256 34.5227 32.9253 35.2693 32.488 35.92C32.0507 36.5707 31.4853 37.0827 30.792 37.456C30.1093 37.8187 29.3253 38 28.44 38ZM26.088 35.776C27.5173 35.776 28.232 34.6827 28.232 32.496V29.776C28.232 28.816 28.0667 28.1013 27.736 27.632C27.416 27.1627 27 26.928 26.488 26.928C26.136 26.928 25.7733 27.0347 25.4 27.248V35.696C25.528 35.728 25.6453 35.7493 25.752 35.76C25.8693 35.7707 25.9813 35.776 26.088 35.776ZM42.8539 29.728C42.8539 28.3733 42.7845 27.4133 42.6459 26.848C42.5072 26.2827 42.2512 26 41.8779 26C41.5579 26 41.2965 26.0587 41.0939 26.176C40.8912 26.2827 40.7419 26.4587 40.6459 26.704C40.5499 26.9387 40.4859 27.184 40.4539 27.44C40.4325 27.6853 40.4219 28 40.4219 28.384V29.728H42.8539ZM41.5739 38.336C40.3792 38.336 39.3392 38.1547 38.4539 37.792C37.5792 37.4293 36.8859 36.9227 36.3739 36.272C35.8725 35.6213 35.5045 34.8907 35.2699 34.08C35.0352 33.2587 34.9179 32.3467 34.9179 31.344C34.9179 28.9547 35.5259 27.1467 36.7419 25.92C37.9579 24.6933 39.6592 24.08 41.8459 24.08C43.9472 24.08 45.4512 24.576 46.3579 25.568C47.2645 26.5493 47.7179 28.1333 47.7179 30.32V32.096H40.4059V32.4C40.4059 33.0293 40.4699 33.5467 40.5979 33.952C40.7365 34.3573 40.9339 34.656 41.1899 34.848C41.4459 35.04 41.7072 35.168 41.9739 35.232C42.2405 35.296 42.5659 35.328 42.9499 35.328C43.3232 35.328 43.7232 35.28 44.1499 35.184C44.5872 35.088 45.0245 34.9387 45.4619 34.736C45.9099 34.5333 46.2832 34.2933 46.5819 34.016L47.5259 35.632C47.1312 36.272 46.5499 36.8107 45.7819 37.248C45.0245 37.6747 44.2939 37.9627 43.5899 38.112C42.8859 38.2613 42.2139 38.336 41.5739 38.336ZM54.6191 38H49.4511V27.648L48.4911 27.056V25.248L51.9311 24.4H53.2271L53.6911 28.208C54.1285 25.5947 55.5311 24.288 57.8991 24.288C58.1658 24.288 58.4431 24.336 58.7311 24.432L58.1871 30.128C57.9631 29.9253 57.4725 29.824 56.7151 29.824C55.6271 29.824 54.9285 30.112 54.6191 30.688V38ZM64.206 38.336C63.2033 38.336 62.19 38.1707 61.166 37.84C60.142 37.4987 59.486 37.168 59.198 36.848L59.614 34.272C59.9767 34.624 60.5793 34.928 61.422 35.184C62.2753 35.44 63.1447 35.568 64.03 35.568C64.67 35.568 65.1073 35.488 65.342 35.328C65.5873 35.168 65.71 34.944 65.71 34.656C65.71 34.3787 65.4967 34.1333 65.07 33.92C64.6433 33.696 63.95 33.44 62.99 33.152C60.5047 32.4053 59.262 30.8587 59.262 28.512C59.262 27.552 59.5393 26.7307 60.094 26.048C60.6487 25.3547 61.358 24.8533 62.222 24.544C63.086 24.2347 64.0513 24.08 65.118 24.08C66.942 24.08 68.286 24.416 69.15 25.088C69.342 25.2693 69.438 25.36 69.438 25.36L68.734 27.648C68.03 26.9547 67.0593 26.608 65.822 26.608C64.8087 26.608 64.302 26.9067 64.302 27.504C64.302 27.6747 64.3393 27.8187 64.414 27.936C64.4887 28.0427 64.6113 28.1387 64.782 28.224C64.9633 28.2987 65.1393 28.3627 65.31 28.416C65.4807 28.4587 65.7207 28.5227 66.03 28.608C66.3393 28.6827 66.606 28.752 66.83 28.816C68.078 29.232 68.9847 29.8187 69.55 30.576C70.1153 31.3333 70.398 32.2773 70.398 33.408C70.398 36.6933 68.334 38.336 64.206 38.336ZM78.1956 36.416C78.665 36.416 79.0223 36.224 79.2676 35.84C79.5236 35.4453 79.6516 34.9067 79.6516 34.224V29.168C79.6516 27.088 79.161 26.048 78.1796 26.048C77.721 26.048 77.3636 26.2347 77.1076 26.608C76.8516 26.9813 76.7236 27.5093 76.7236 28.192V33.392C76.7236 35.408 77.2143 36.416 78.1956 36.416ZM78.0676 38.336C75.625 38.336 73.8383 37.7813 72.7076 36.672C71.577 35.5627 71.0116 33.792 71.0116 31.36C71.0116 28.9493 71.5823 27.136 72.7236 25.92C73.865 24.6933 75.721 24.08 78.2916 24.08C80.7983 24.08 82.6063 24.6667 83.7156 25.84C84.8356 27.0027 85.3956 28.768 85.3956 31.136C85.3956 33.5893 84.8036 35.4027 83.6196 36.576C82.4463 37.7493 80.5956 38.336 78.0676 38.336ZM92.3066 38H87.1386V27.648L86.1786 27.056V25.344L89.6186 24.4H92.3386V26.464L92.5306 26.224C92.6586 26.0533 92.8453 25.8507 93.0906 25.616C93.3466 25.3813 93.6293 25.152 93.9386 24.928C94.248 24.6933 94.616 24.496 95.0426 24.336C95.48 24.1653 95.9066 24.08 96.3226 24.08C97.784 24.08 98.8133 24.48 99.4106 25.28C100.019 26.08 100.323 27.4187 100.323 29.296C100.323 29.36 100.323 29.456 100.323 29.584C100.312 29.712 100.307 29.8133 100.307 29.888V38H95.0266V29.424C95.0586 28.4213 94.632 27.92 93.7466 27.92C93.6826 27.92 93.6186 27.9253 93.5546 27.936C93.5013 27.9467 93.448 27.9573 93.3946 27.968C93.352 27.9787 93.2986 28 93.2346 28.032C93.1813 28.0533 93.1333 28.0747 93.0906 28.096C93.048 28.1067 93 28.1333 92.9466 28.176C92.8933 28.208 92.8506 28.2347 92.8186 28.256C92.7866 28.2773 92.7386 28.3147 92.6746 28.368C92.6213 28.4107 92.5786 28.4427 92.5466 28.464C92.5253 28.4853 92.4826 28.5227 92.4186 28.576C92.3653 28.6187 92.328 28.6507 92.3066 28.672V38ZM109.238 36.576L109.078 36.752C108.971 36.88 108.806 37.0293 108.582 37.2C108.369 37.3707 108.118 37.5413 107.83 37.712C107.553 37.8827 107.211 38.0267 106.806 38.144C106.401 38.272 105.985 38.336 105.558 38.336C102.678 38.336 101.238 36.912 101.238 34.064C101.238 33.5093 101.339 33.0027 101.542 32.544C101.745 32.0747 102.006 31.68 102.326 31.36C102.646 31.04 103.03 30.7573 103.478 30.512C103.926 30.256 104.374 30.0587 104.822 29.92C105.281 29.7707 105.761 29.648 106.262 29.552C106.763 29.456 107.211 29.392 107.606 29.36C108.001 29.328 108.379 29.312 108.742 29.312V29.024C108.742 28.3733 108.566 27.9147 108.214 27.648C107.873 27.3813 107.318 27.248 106.55 27.248C105.889 27.248 105.201 27.328 104.486 27.488C103.771 27.6373 103.211 27.8187 102.806 28.032L101.782 25.856C102.507 25.3867 103.451 24.976 104.614 24.624C105.777 24.2613 106.961 24.08 108.166 24.08C109.233 24.08 110.113 24.1867 110.806 24.4C111.499 24.6027 112.059 24.9547 112.486 25.456C112.923 25.9467 113.233 26.576 113.414 27.344C113.595 28.1013 113.686 29.0667 113.686 30.24V36.752L114.134 38H109.75L109.238 36.576ZM107.974 35.52C108.113 35.52 108.241 35.4933 108.358 35.44C108.486 35.376 108.582 35.3173 108.646 35.264C108.71 35.2 108.742 35.168 108.742 35.168V31.328C108.091 31.328 107.574 31.5093 107.19 31.872C106.806 32.224 106.614 32.7733 106.614 33.52C106.614 34.8533 107.067 35.52 107.974 35.52ZM121.892 43.648C121.06 43.648 120.122 43.456 119.076 43.072C118.031 42.6987 117.354 42.3413 117.044 42L118.052 39.808C118.319 40.0107 118.751 40.1973 119.348 40.368C119.946 40.5387 120.458 40.624 120.884 40.624C121.311 40.624 121.679 40.5653 121.988 40.448C122.308 40.3413 122.554 40.2027 122.724 40.032C122.895 39.872 123.034 39.6693 123.14 39.424C123.247 39.1893 123.311 38.976 123.332 38.784C123.364 38.592 123.386 38.3787 123.396 38.144V36.784C122.49 37.7227 121.386 38.192 120.084 38.192C118.324 38.192 117.034 37.5893 116.212 36.384C115.391 35.1787 114.98 33.504 114.98 31.36C114.98 30.3573 115.092 29.4347 115.316 28.592C115.54 27.7387 115.866 26.992 116.292 26.352C116.73 25.7013 117.295 25.1947 117.988 24.832C118.682 24.4587 119.466 24.272 120.34 24.272C121.663 24.272 122.81 24.5653 123.78 25.152L124.052 24.4H126.5L129.508 24.544V26.048L128.548 26.72V37.408C128.548 41.568 126.33 43.648 121.892 43.648ZM122.404 35.28C122.724 35.28 123.055 35.1893 123.396 35.008V26.576C123.14 26.5227 122.906 26.496 122.692 26.496C121.274 26.5067 120.559 27.6 120.548 29.776V32.256C120.548 32.9387 120.639 33.5253 120.82 34.016C121.14 34.8587 121.668 35.28 122.404 35.28ZM137.963 29.728C137.963 28.3733 137.894 27.4133 137.755 26.848C137.617 26.2827 137.361 26 136.987 26C136.667 26 136.406 26.0587 136.203 26.176C136.001 26.2827 135.851 26.4587 135.755 26.704C135.659 26.9387 135.595 27.184 135.563 27.44C135.542 27.6853 135.531 28 135.531 28.384V29.728H137.963ZM136.683 38.336C135.489 38.336 134.449 38.1547 133.563 37.792C132.689 37.4293 131.995 36.9227 131.483 36.272C130.982 35.6213 130.614 34.8907 130.379 34.08C130.145 33.2587 130.027 32.3467 130.027 31.344C130.027 28.9547 130.635 27.1467 131.851 25.92C133.067 24.6933 134.769 24.08 136.955 24.08C139.057 24.08 140.561 24.576 141.467 25.568C142.374 26.5493 142.827 28.1333 142.827 30.32V32.096H135.515V32.4C135.515 33.0293 135.579 33.5467 135.707 33.952C135.846 34.3573 136.043 34.656 136.299 34.848C136.555 35.04 136.817 35.168 137.083 35.232C137.35 35.296 137.675 35.328 138.059 35.328C138.433 35.328 138.833 35.28 139.259 35.184C139.697 35.088 140.134 34.9387 140.571 34.736C141.019 34.5333 141.393 34.2933 141.691 34.016L142.635 35.632C142.241 36.272 141.659 36.8107 140.891 37.248C140.134 37.6747 139.403 37.9627 138.699 38.112C137.995 38.2613 137.323 38.336 136.683 38.336ZM149.728 38H144.561V27.648L143.601 27.056V25.344L147.04 24.4H149.76V26.464L149.953 26.224C150.08 26.0533 150.267 25.8507 150.512 25.616C150.768 25.3813 151.051 25.152 151.36 24.928C151.67 24.6933 152.038 24.496 152.464 24.336C152.902 24.1653 153.329 24.08 153.744 24.08C155.206 24.08 156.235 24.48 156.832 25.28C157.44 26.08 157.744 27.4187 157.744 29.296C157.744 29.36 157.744 29.456 157.744 29.584C157.734 29.712 157.728 29.8133 157.728 29.888V38H152.449V29.424C152.481 28.4213 152.054 27.92 151.168 27.92C151.104 27.92 151.04 27.9253 150.977 27.936C150.923 27.9467 150.87 27.9573 150.816 27.968C150.774 27.9787 150.72 28 150.656 28.032C150.603 28.0533 150.555 28.0747 150.512 28.096C150.47 28.1067 150.422 28.1333 150.368 28.176C150.315 28.208 150.273 28.2347 150.24 28.256C150.208 28.2773 150.16 28.3147 150.096 28.368C150.043 28.4107 150 28.4427 149.968 28.464C149.947 28.4853 149.904 28.5227 149.84 28.576C149.787 28.6187 149.75 28.6507 149.728 28.672V38ZM163.956 38.336C162.953 38.336 161.94 38.1707 160.916 37.84C159.892 37.4987 159.236 37.168 158.948 36.848L159.364 34.272C159.727 34.624 160.329 34.928 161.172 35.184C162.025 35.44 162.895 35.568 163.78 35.568C164.42 35.568 164.857 35.488 165.092 35.328C165.337 35.168 165.46 34.944 165.46 34.656C165.46 34.3787 165.247 34.1333 164.82 33.92C164.393 33.696 163.7 33.44 162.74 33.152C160.255 32.4053 159.012 30.8587 159.012 28.512C159.012 27.552 159.289 26.7307 159.844 26.048C160.399 25.3547 161.108 24.8533 161.972 24.544C162.836 24.2347 163.801 24.08 164.868 24.08C166.692 24.08 168.036 24.416 168.9 25.088C169.092 25.2693 169.188 25.36 169.188 25.36L168.484 27.648C167.78 26.9547 166.809 26.608 165.572 26.608C164.559 26.608 164.052 26.9067 164.052 27.504C164.052 27.6747 164.089 27.8187 164.164 27.936C164.239 28.0427 164.361 28.1387 164.532 28.224C164.713 28.2987 164.889 28.3627 165.06 28.416C165.231 28.4587 165.471 28.5227 165.78 28.608C166.089 28.6827 166.356 28.752 166.58 28.816C167.828 29.232 168.735 29.8187 169.3 30.576C169.865 31.3333 170.148 32.2773 170.148 33.408C170.148 36.6933 168.084 38.336 163.956 38.336Z" fill="white"/>
</svg>
