<svg width="119" height="80" viewBox="0 0 119 80" fill="none" xmlns="http://www.w3.org/2000/svg">
<path d="M2 12C2 8.13401 5.13401 5 9 5H110C113.866 5 117 8.13401 117 12V34.373C117 37.8998 114.396 40.8773 110.903 41.3586C96.5259 43.3393 59.8505 48.7518 35 55.5823C3.5 64.2405 2 49.8432 2 49.8432V12Z" fill="#15D2BE"/>
<path d="M2 12C2 8.13401 5.13401 5 9 5H110C113.866 5 117 8.13401 117 12V34.373C117 37.8998 114.396 40.8773 110.903 41.3586C96.5259 43.3393 59.8505 48.7518 35 55.5823C3.5 64.2405 2 49.8432 2 49.8432V12Z" fill="#15D2BE"/>
<path d="M28.456 39.336C27.4533 39.336 26.44 39.1707 25.416 38.84C24.392 38.4987 23.736 38.168 23.448 37.848L23.864 35.272C24.2267 35.624 24.8293 35.928 25.672 36.184C26.5253 36.44 27.3947 36.568 28.28 36.568C28.92 36.568 29.3573 36.488 29.592 36.328C29.8373 36.168 29.96 35.944 29.96 35.656C29.96 35.3787 29.7467 35.1333 29.32 34.92C28.8933 34.696 28.2 34.44 27.24 34.152C24.7547 33.4053 23.512 31.8587 23.512 29.512C23.512 28.552 23.7893 27.7307 24.344 27.048C24.8987 26.3547 25.608 25.8533 26.472 25.544C27.336 25.2347 28.3013 25.08 29.368 25.08C31.192 25.08 32.536 25.416 33.4 26.088C33.592 26.2693 33.688 26.36 33.688 26.36L32.984 28.648C32.28 27.9547 31.3093 27.608 30.072 27.608C29.0587 27.608 28.552 27.9067 28.552 28.504C28.552 28.6747 28.5893 28.8187 28.664 28.936C28.7387 29.0427 28.8613 29.1387 29.032 29.224C29.2133 29.2987 29.3893 29.3627 29.56 29.416C29.7307 29.4587 29.9707 29.5227 30.28 29.608C30.5893 29.6827 30.856 29.752 31.08 29.816C32.328 30.232 33.2347 30.8187 33.8 31.576C34.3653 32.3333 34.648 33.2773 34.648 34.408C34.648 37.6933 32.584 39.336 28.456 39.336ZM42.4456 37.416C42.915 37.416 43.2723 37.224 43.5176 36.84C43.7736 36.4453 43.9016 35.9067 43.9016 35.224V30.168C43.9016 28.088 43.411 27.048 42.4296 27.048C41.971 27.048 41.6136 27.2347 41.3576 27.608C41.1016 27.9813 40.9736 28.5093 40.9736 29.192V34.392C40.9736 36.408 41.4643 37.416 42.4456 37.416ZM42.3176 39.336C39.875 39.336 38.0883 38.7813 36.9576 37.672C35.827 36.5627 35.2616 34.792 35.2616 32.36C35.2616 29.9493 35.8323 28.136 36.9736 26.92C38.115 25.6933 39.971 25.08 42.5416 25.08C45.0483 25.08 46.8563 25.6667 47.9656 26.84C49.0856 28.0027 49.6456 29.768 49.6456 32.136C49.6456 34.5893 49.0536 36.4027 47.8696 37.576C46.6963 38.7493 44.8456 39.336 42.3176 39.336ZM59.5806 39C58.386 39 57.3193 38.7493 56.3806 38.248V39H51.1646V20.904L50.2046 20.328V18.84L55.3406 18.04H56.3806V26.648C56.5513 26.456 56.738 26.2747 56.9406 26.104C57.1433 25.9333 57.3886 25.768 57.6766 25.608C57.9646 25.448 58.29 25.32 58.6526 25.224C59.026 25.128 59.4206 25.08 59.8366 25.08C61.5966 25.08 62.8873 25.6827 63.7086 26.888C64.5406 28.0933 64.9566 29.7627 64.9566 31.896C64.9566 32.8987 64.8446 33.8267 64.6206 34.68C64.3966 35.5227 64.066 36.2693 63.6286 36.92C63.1913 37.5707 62.626 38.0827 61.9326 38.456C61.25 38.8187 60.466 39 59.5806 39ZM57.2286 36.776C58.658 36.776 59.3726 35.6827 59.3726 33.496V30.776C59.3726 29.8587 59.202 29.1547 58.8606 28.664C58.53 28.1627 58.1033 27.912 57.5806 27.912C57.186 27.912 56.786 28.056 56.3806 28.344V36.664C56.5406 36.7067 56.69 36.7387 56.8286 36.76C56.9673 36.7707 57.1006 36.776 57.2286 36.776ZM71.791 39H66.623V28.648L65.663 28.056V26.248L69.103 25.4H70.399L70.863 29.208C71.3003 26.5947 72.703 25.288 75.071 25.288C75.3377 25.288 75.615 25.336 75.903 25.432L75.359 31.128C75.135 30.9253 74.6443 30.824 73.887 30.824C72.799 30.824 72.1003 31.112 71.791 31.688V39ZM84.3539 30.728C84.3539 29.3733 84.2845 28.4133 84.1459 27.848C84.0072 27.2827 83.7512 27 83.3779 27C83.0579 27 82.7965 27.0587 82.5939 27.176C82.3912 27.2827 82.2419 27.4587 82.1459 27.704C82.0499 27.9387 81.9859 28.184 81.9539 28.44C81.9325 28.6853 81.9219 29 81.9219 29.384V30.728H84.3539ZM83.0739 39.336C81.8792 39.336 80.8392 39.1547 79.9539 38.792C79.0792 38.4293 78.3859 37.9227 77.8739 37.272C77.3725 36.6213 77.0045 35.8907 76.7699 35.08C76.5352 34.2587 76.4179 33.3467 76.4179 32.344C76.4179 29.9547 77.0259 28.1467 78.2419 26.92C79.4579 25.6933 81.1592 25.08 83.3459 25.08C85.4472 25.08 86.9512 25.576 87.8579 26.568C88.7645 27.5493 89.2179 29.1333 89.2179 31.32V33.096H81.9059V33.4C81.9059 34.0293 81.9699 34.5467 82.0979 34.952C82.2365 35.3573 82.4339 35.656 82.6899 35.848C82.9459 36.04 83.2072 36.168 83.4739 36.232C83.7405 36.296 84.0659 36.328 84.4499 36.328C84.8232 36.328 85.2232 36.28 85.6499 36.184C86.0872 36.088 86.5245 35.9387 86.9619 35.736C87.4099 35.5333 87.7832 35.2933 88.0819 35.016L89.0259 36.632C88.6312 37.272 88.0499 37.8107 87.2819 38.248C86.5245 38.6747 85.7939 38.9627 85.0899 39.112C84.3859 39.2613 83.7139 39.336 83.0739 39.336Z" fill="white"/>
</svg>
