<svg width="68" height="65" viewBox="0 0 68 65" fill="none" xmlns="http://www.w3.org/2000/svg">
<path d="M53.3142 49.6014C63.087 48.657 58.2572 37.9959 60.1353 28.2419C62.0134 18.4879 40.4542 18.4051 39.8726 8.12961C39.291 -2.14583 0.0204801 20.8684 8.90461 28.4899C17.7887 36.1115 11.3516 58.6559 21.6018 54.9435C31.8519 51.2312 43.5413 50.5459 53.3142 49.6014Z" stroke="#F3B562" stroke-width="6"/>
<path d="M21.1626 9.54204C11.5684 7.46741 12.8767 19.0853 8.07958 27.7988C3.28246 36.5122 23.7792 43.151 21.1626 53.1092C18.546 63.0674 63.0283 53.1092 56.9229 43.151C50.8175 33.1928 63.9005 13.6913 52.998 14.1062C42.0954 14.5211 30.7568 11.6167 21.1626 9.54204Z" stroke="#0C4EEB" stroke-width="6"/>
<rect x="6.53851" y="6.00003" width="55" height="53" rx="26.5" fill="#AC248A"/>
<path d="M44.5385 32.5L28.7885 43.3253V21.6747L44.5385 32.5Z" fill="white"/>
</svg>
