<svg width="331" height="414" viewBox="0 0 331 414" fill="none" xmlns="http://www.w3.org/2000/svg">
<g filter="url(#filter0_d_211_33)">
<rect x="1" width="329" height="412" rx="12" fill="#901E74"/>
</g>
<path d="M146.9 383.28H156.82V386.08H153.24V398H150.34V386.08H146.9V383.28ZM159.619 383.28H162.519V398H159.619V383.28ZM170.638 383.28C172.171 383.28 173.391 383.593 174.298 384.22C175.205 384.833 175.658 385.753 175.658 386.98C175.658 387.887 175.431 388.647 174.978 389.26C174.538 389.86 173.931 390.313 173.158 390.62C172.398 390.913 171.525 391.06 170.538 391.06L170.078 389.5C171.291 389.5 172.365 389.667 173.298 390C174.245 390.333 174.991 390.813 175.538 391.44C176.085 392.053 176.358 392.793 176.358 393.66C176.358 394.46 176.211 395.14 175.918 395.7C175.638 396.247 175.251 396.693 174.758 397.04C174.278 397.373 173.731 397.62 173.118 397.78C172.505 397.927 171.871 398 171.218 398H166.318V383.28H170.638ZM170.978 389.3C171.551 389.3 171.971 389.127 172.238 388.78C172.518 388.433 172.658 388.04 172.658 387.6C172.658 387.093 172.485 386.713 172.138 386.46C171.805 386.207 171.351 386.08 170.778 386.08H169.218V389.3H170.978ZM171.078 395.3C171.505 395.3 171.891 395.247 172.238 395.14C172.585 395.02 172.858 394.84 173.058 394.6C173.258 394.347 173.358 394.033 173.358 393.66C173.358 393.233 173.238 392.913 172.998 392.7C172.758 392.473 172.445 392.32 172.058 392.24C171.685 392.147 171.291 392.1 170.878 392.1H169.218V395.3H171.078ZM179.267 383.28H182.167V398H179.267V383.28Z" fill="white"/>
<path d="M167 385H172L173.5 388L168.5 397L167 385Z" fill="white"/>
<defs>
<filter id="filter0_d_211_33" x="0" y="0" width="331" height="414" filterUnits="userSpaceOnUse" color-interpolation-filters="sRGB">
<feFlood flood-opacity="0" result="BackgroundImageFix"/>
<feColorMatrix in="SourceAlpha" type="matrix" values="0 0 0 0 0 0 0 0 0 0 0 0 0 0 0 0 0 0 127 0" result="hardAlpha"/>
<feOffset dy="1"/>
<feGaussianBlur stdDeviation="0.5"/>
<feComposite in2="hardAlpha" operator="out"/>
<feColorMatrix type="matrix" values="0 0 0 0 0 0 0 0 0 0 0 0 0 0 0 0 0 0 0.25 0"/>
<feBlend mode="normal" in2="BackgroundImageFix" result="effect1_dropShadow_211_33"/>
<feBlend mode="normal" in="SourceGraphic" in2="effect1_dropShadow_211_33" result="shape"/>
</filter>
</defs>
</svg>
