<svg width="736" height="216" viewBox="0 0 736 216" fill="none" xmlns="http://www.w3.org/2000/svg">
<g clip-path="url(#clip0_218_10)">
<rect width="736" height="100" transform="matrix(1 0 0 -1 -23 179.19)" fill="#0C4EEB"/>
<path d="M-31.5 121.69C-31.5 121.69 226 60.6896 368.5 110.69C511 160.69 779.5 131.69 779.5 131.69" stroke="#F3B562" stroke-width="150"/>
<path d="M194 178.797C194 178.797 561.088 41.7951 767.323 129.525C973.558 217.254 1145 178.797 1145 178.797" stroke="#AC248A" stroke-width="150"/>
<path d="M-308 141.69C-303.2 141.69 -114.5 198.69 35 152.19C184.5 105.69 308 141.69 308 141.69C308 141.69 510.5 209.19 622 152.19C733.5 95.1899 784 152.19 784 152.19" stroke="#0C4EEB" stroke-width="150"/>
<rect x="-54" y="147" width="957" height="435" fill="#0C4EEB"/>
<path d="M-31.5 121.69C-31.5 121.69 226 60.6896 368.5 110.69C511 160.69 779.5 131.69 779.5 131.69" stroke="#F3B562" stroke-width="150"/>
<path d="M194 178.797C194 178.797 561.088 41.7951 767.323 129.525C973.558 217.254 1145 178.797 1145 178.797" stroke="#AC248A" stroke-width="150"/>
<path d="M-308 141.69C-303.2 141.69 -114.5 198.69 35 152.19C184.5 105.69 308 141.69 308 141.69C308 141.69 510.5 209.19 622 152.19C733.5 95.1899 784 152.19 784 152.19" stroke="#0C4EEB" stroke-width="150"/>
<rect x="-54" y="147" width="957" height="435" fill="#0C4EEB"/>
</g>
<defs>
<clipPath id="clip0_218_10">
<rect width="736" height="216" fill="white"/>
</clipPath>
</defs>
</svg>
