<svg width="736" height="117" viewBox="0 0 736 117" fill="none" xmlns="http://www.w3.org/2000/svg">
<g clip-path="url(#clip0_60_21)">
<rect y="-92" width="736" height="100" fill="#0B0251"/>
<rect y="-92" width="736" height="100" fill="#0B0251"/>
<path d="M-8.5 8.50002C-8.5 8.50002 249 69.5 391.5 19.5C534 -30.5 802.5 -1.50004 802.5 -1.50004" stroke="#15D2BE" stroke-width="150"/>
<path d="M-8.5 8.50002C-8.5 8.50002 249 69.5 391.5 19.5C534 -30.5 802.5 -1.50004 802.5 -1.50004" stroke="#15D2BE" stroke-width="150"/>
<path d="M217 -49.6075C217 -49.6075 584.088 87.3946 790.323 -0.334816C996.558 -88.0643 1168 -49.6075 1168 -49.6075" stroke="#0C4EEB" stroke-width="150"/>
<path d="M217 -49.6075C217 -49.6075 584.088 87.3946 790.323 -0.334816C996.558 -88.0643 1168 -49.6075 1168 -49.6075" stroke="#0C4EEB" stroke-width="150"/>
<path d="M-285 3.49999C-280.2 3.49999 -91.5 -53.4999 58 -6.99994C207.5 39.5001 331 3.5 331 3.5C331 3.5 533.5 -64 645 -6.99994C756.5 50.0002 807 -6.99994 807 -6.99994" stroke="#0B0251" stroke-width="150"/>
<path d="M-285 3.49999C-280.2 3.49999 -91.5 -53.4999 58 -6.99994C207.5 39.5001 331 3.5 331 3.5C331 3.5 533.5 -64 645 -6.99994C756.5 50.0002 807 -6.99994 807 -6.99994" stroke="#0B0251" stroke-width="150"/>
</g>
<defs>
<clipPath id="clip0_60_21">
<rect width="736" height="117" fill="white"/>
</clipPath>
</defs>
</svg>
