<svg width="368" height="19" viewBox="0 0 368 19" fill="none" xmlns="http://www.w3.org/2000/svg">
<path d="M0.875212 17.5158C0.958404 17.8386 1.0416 18.1614 1.12479 18.4842C7.08231 17.0939 13.1227 15.8646 19.1506 14.7061C69.2871 5.54239 120.935 -0.450624 171.166 7.46416C175.478 8.2027 179.878 8.88811 184.264 9.5147C239.308 16.614 295.224 19.8166 350.411 12.2195C356.369 10.9309 362.961 10.2263 367.875 5.83031C367.625 5.6101 367.375 5.3899 367.125 5.16969C362.749 8.88385 356.023 9.62718 350.152 10.6701C295.247 16.6068 239.485 12.6097 184.83 5.55491C180.475 4.93285 176.109 4.25782 171.834 3.53584C120.632 -4.38946 68.8199 2.5321 18.833 13.1694C12.8227 14.5079 6.82039 15.9228 0.875212 17.5158Z" fill="#F3B562"/>
</svg>
