<svg width="429" height="379" viewBox="0 0 429 379" fill="none" xmlns="http://www.w3.org/2000/svg">
<g clip-path="url(#clip0_60_97)">
<path d="M35.4 366.42L5.88 336.72V330.42L35.4 300.9H42.24L73.02 330.42V336.72L42.24 366.42H35.4Z" fill="#0C4EEB" fill-opacity="0.6"/>
<path d="M360 356.7L310.8 307.2V296.7L360 247.5H371.4L422.7 296.7V307.2L371.4 356.7H360Z" fill="#0C4EEB" fill-opacity="0.6"/>
<path d="M284 87.8L251.2 54.8V47.8L284 15H291.6L325.8 47.8V54.8L291.6 87.8H284Z" fill="#0C4EEB" fill-opacity="0.6"/>
<path d="M140 304.533L118.133 282.533V277.867L140 256H145.067L167.867 277.867V282.533L145.067 304.533H140Z" fill="#0C4EEB" fill-opacity="0.6"/>
<path d="M367 163.533L345.133 141.533V136.867L367 115H372.067L394.867 136.867V141.533L372.067 163.533H367Z" fill="#0C4EEB" fill-opacity="0.6"/>
<path d="M119.4 85.52L106.28 72.32V69.52L119.4 56.4H122.44L136.12 69.52V72.32L122.44 85.52H119.4Z" fill="#0C4EEB" fill-opacity="0.6"/>
<path d="M242.4 217.52L229.28 204.32V201.52L242.4 188.4H245.44L259.12 201.52V204.32L245.44 217.52H242.4Z" fill="#0C4EEB" fill-opacity="0.6"/>
</g>
<defs>
<clipPath id="clip0_60_97">
<rect width="429" height="379" fill="white"/>
</clipPath>
</defs>
</svg>
